<svg xmlns="http://www.w3.org/2000/svg" width="150" height="20"><g fill="#FFF" fill-rule="evenodd"><path d="m53.818 12.061 4.624 7.03h-4.38L49.64 12.36h-6.003V8.852h8.127c1.594 0 2.886-1.198 2.886-2.675a2.55 2.55 0 0 0-.844-1.884 2.98 2.98 0 0 0-2.042-.785h-8.127V0h8.127c1.847 0 3.513.691 4.723 1.811.34.315.642.666.903 1.04a5.8 5.8 0 0 1 1.053 3.326c0 .96-.237 1.864-.658 2.675-.785 1.512-2.216 2.687-3.966 3.21M112.998 19.09h12.846v-3.513h-12.846zm0-15.576h12.82V0h-12.82zm-.011 7.789h7.972V7.788h-7.972zM13.754 2.85a6.3 6.3 0 0 0-.904-1.04C11.641.69 9.974 0 8.13 0H0v3.508h8.129c.798 0 1.52.3 2.04.784.523.482.846 1.15.846 1.886 0 1.476-1.292 2.672-2.886 2.672H0V19.09h3.558v-6.733h4.57c2.654 0 4.945-1.432 6.021-3.508.42-.81.656-1.715.656-2.672a5.8 5.8 0 0 0-1.051-3.328M150 0h-4.332l-4.045 6.217L137.58 0h-4.332l6.21 9.545-6.21 9.546h4.332l4.044-6.217 4.045 6.217H150l-6.21-9.546zM83.766 19.09 76.771 0H72.45l-6.995 19.09h4.316l4.84-13.208 4.84 13.208zM36.234 19.09 29.239 0h-4.322l-6.995 19.09h4.316l4.84-13.208 4.84 13.208zM105.974 9.545a9.44 9.44 0 0 1-2.837 6.75 9.72 9.72 0 0 1-6.848 2.796h-5.12v-3.514h5.12c3.38 0 6.12-2.7 6.12-6.032a5.97 5.97 0 0 0-1.793-4.264 6.15 6.15 0 0 0-4.327-1.767h-5.12V0h5.12c5.348 0 9.685 4.272 9.685 9.545"/></g></svg>
